<svg id="Ebene_1" data-name="Ebene 1" xmlns="http://www.w3.org/2000/svg" viewBox="0 0 200 100"><defs><style>.cls-1{fill:#ffffff;}</style></defs><title>Zeichenfläche 1 Kopie</title><path class="cls-1" d="M200,100H0V0H200ZM5,5V94.91H195V5Z"/><path class="cls-1" d="M131.83,48.57a36.68,36.68,0,0,1,4.3,3,13,13,0,0,1,4,10.55c-.39,6.6-3.83,10.93-10.14,12.69a9.49,9.49,0,0,1-2.56.16q-11.35,0-22.71,0c-2.18,0-2.69-.46-2.69-2.58q0-22.18.11-44.38c0-3.95.09-3.95,4-3.95,6.6,0,13.19,0,19.79,0,11.22-.09,16,10.45,11.78,19.11-.82,1.68-2.66,2.89-4.09,4.26A10.28,10.28,0,0,1,131.83,48.57ZM114.3,54.45c0,3.21,0,6.23,0,9.24a1.44,1.44,0,0,0,1,1c2.68.06,5.38.13,8-.06,2.84-.2,4.2-2,4.19-5s-1.57-4.89-4.27-5C120.44,54.33,117.53,54.45,114.3,54.45Zm.06-10.58c3,0,5.9.2,8.77-.07,2.29-.21,3.69-2.32,3.67-4.68s-1.14-4.28-3.18-4.44c-3-.24-6.12-.06-9.26-.06Z"/><path class="cls-1" d="M142.52,48.24c.24-6,1.8-12.11,6.12-17.32,6.52-7.87,19.68-9.21,27.27-2.41,2,1.75,3.26,4.25,4.68,6.52.74,1.17.16,2.18-1.15,2.72-1.7.7-3.38,1.45-5.07,2.16-2,.82-2.38.68-3.47-1.17-1.6-2.74-3.88-4.38-7.15-4.24a7.44,7.44,0,0,0-6.6,4.07c-3.74,7.2-3.88,14.63-.08,21.77,3.12,5.85,10.12,5.75,13.61.11,1.61-2.61,1.62-2.62,4.42-1.47q2.24.9,4.44,1.89c1.56.7,1.81,1.41,1.12,3-5.08,11.65-19.15,14.88-29.08,6.67C145.41,65.44,142.38,58.16,142.52,48.24Z"/><path class="cls-1" d="M76.38,38.35c-.72,3.48-1.46,7-2.18,10.46q-1.38,6.66-2.75,13.34a2.3,2.3,0,0,1-2.56,2.16c-2.5,0-5,0-7.5,0-2,0-2.73-1-2.23-2.83C62.33,49.73,65.55,38,68.73,26.27a2.61,2.61,0,0,1,2.84-2.15l10.23.06a2.52,2.52,0,0,1,2.75,2Q91,49,97.58,71.73c.65,2.28-.22,3.34-2.61,3.37s-4.55,0-6.82,0c-2.53,0-3.06-.43-3.6-2.87Q81,56,77.37,39.8c-.11-.52-.29-1-.44-1.53Z"/><path class="cls-1" d="M52.47,64,35,49.58,52.47,35.17a6.24,6.24,0,0,0-7.94-9.62L21.24,44.77a6.25,6.25,0,0,0,0,9.62L44.53,73.61a6.28,6.28,0,0,0,4,1.43,6.23,6.23,0,0,0,4-11Z"/></svg>